<svg width="33" height="32" viewBox="0 0 33 32" fill="none" xmlns="http://www.w3.org/2000/svg">
<g id="Icon">
<path id="Delete Button" fill-rule="evenodd" clip-rule="evenodd" d="M8.84546 11.1196C8.83078 11.1332 8.80196 11.1616 8.77017 11.1934C8.74712 11.2165 8.72871 11.2351 8.69059 11.2739L6.58119 13.4177C6.52595 13.4765 6.48758 13.516 6.39844 13.6066C6.3487 13.6572 6.31218 13.696 6.23359 13.7809C6.08748 13.9246 5.93341 14.0962 5.78903 14.2773C5.6529 14.4236 5.54413 14.5941 5.46816 14.7804C5.31176 15.2646 5.31176 15.7354 5.45108 16.1725L5.46974 16.2235C5.54632 16.4078 5.65444 16.5767 5.78901 16.7225C5.93351 16.9023 6.08757 17.0739 6.25049 17.2367C6.31218 17.304 6.3487 17.3428 6.39844 17.3934L6.58119 17.5791L8.50438 19.5369C8.59432 19.6283 8.63848 19.6727 8.68964 19.7223C8.74417 19.7807 8.80144 19.8387 8.85893 19.8937C8.86921 19.903 11.3204 22.3926 11.3204 22.3926C11.3961 22.4696 11.4571 22.53 11.5945 22.6648C11.6091 22.6793 11.6312 22.7022 11.638 22.7094C11.6734 22.7472 11.6939 22.7691 11.7075 22.783C11.9934 23.0739 12.322 23.3184 12.6815 23.5076C13.0499 23.694 13.4332 23.8222 13.8286 23.8929C14.2021 23.955 14.5721 23.9882 14.943 23.9936C15.0068 23.9949 15.0598 23.9956 15.178 23.9968C15.2921 23.998 15.3424 23.9986 15.4042 23.9999L22.7081 24C22.7834 23.9986 22.8343 23.998 22.9496 23.9968C23.0689 23.9956 23.1225 23.9949 23.191 23.9936C23.5634 23.9869 23.936 23.9526 24.3047 23.8909C24.7089 23.8214 25.0976 23.691 25.4605 23.5035C25.8261 23.3148 26.1599 23.0679 26.4492 22.7724C26.7369 22.4788 26.9785 22.1413 27.165 21.7724C27.3491 21.3978 27.4757 21.0045 27.5437 20.5988C27.6056 20.2196 27.6384 19.839 27.6423 19.4576C27.6456 19.3791 27.6471 19.3041 27.6492 19.138C27.6502 19.0591 27.6507 19.0244 27.6515 18.9816L27.6517 11.9898C27.6507 11.9353 27.6502 11.9007 27.6492 11.8233L27.6481 11.7428C27.6466 11.6413 27.6449 11.5651 27.6419 11.4893C27.6378 11.1302 27.6063 10.7546 27.5479 10.3827C27.4767 9.9709 27.3506 9.58132 27.1717 9.21602C26.9838 8.84294 26.7438 8.50805 26.4573 8.21693C26.1717 7.92442 25.84 7.67857 25.4765 7.49042C25.1153 7.30653 24.7338 7.17811 24.3401 7.10724C23.9625 7.04612 23.5919 7.01407 23.2205 7.00949C23.0976 7.00425 22.9889 7.00315 22.7483 7.00315C22.6695 7.00173 22.5773 7.00084 22.4737 7.0004C22.3957 7.00007 22.3337 7 22.1939 7H15.971C15.6919 7 15.5655 7.00054 15.4062 7.00324C15.176 7.00315 15.0672 7.00425 14.9272 7.00995C14.5741 7.01378 14.2041 7.04588 13.8379 7.10553C13.4332 7.17782 13.0499 7.30602 12.6905 7.48777C12.322 7.68162 11.9934 7.92613 11.7073 8.21728C11.6939 8.2309 11.6734 8.25276 11.6394 8.2891C11.6312 8.29781 11.5945 8.33519 11.5945 8.33519C11.4571 8.46999 11.3961 8.53044 11.3204 8.60738L11.0044 8.92849L8.90309 11.0673C8.88468 11.0822 8.86498 11.0998 8.84546 11.1196ZM22.1939 8.25926C22.332 8.25926 22.3928 8.25932 22.4685 8.25965C22.5673 8.26007 22.6544 8.2609 22.738 8.26232C22.9724 8.26241 23.0701 8.2634 23.1882 8.2682C23.5167 8.27249 23.8273 8.29936 24.1347 8.34904C24.3999 8.39687 24.6673 8.48689 24.9179 8.61444C25.1604 8.73995 25.385 8.90644 25.5795 9.10572C25.7765 9.3058 25.9399 9.53389 26.0657 9.78352C26.1883 10.034 26.2771 10.3082 26.326 10.5909C26.3732 10.8923 26.3996 11.2069 26.4034 11.5221C26.4064 11.6029 26.4079 11.6696 26.4092 11.7615L26.4103 11.8399C26.4114 11.9202 26.4119 11.9567 26.4128 12.0024L26.4127 18.9693C26.4119 19.0033 26.4114 19.0399 26.4103 19.1216C26.4083 19.2767 26.407 19.3444 26.4038 19.4263C26.4001 19.7612 26.3729 20.0774 26.3219 20.39C26.2748 20.6708 26.1863 20.9458 26.0598 21.2033C25.9349 21.4503 25.7689 21.6821 25.5711 21.884C25.3743 22.085 25.1477 22.2526 24.8993 22.3809C24.6479 22.5107 24.3787 22.601 24.1008 22.6488C23.7942 22.7001 23.4814 22.7289 23.1679 22.7345C23.1036 22.7358 23.0527 22.7365 22.9373 22.7376C22.818 22.7388 22.7644 22.7395 22.6959 22.7409L15.4166 22.7407C15.3617 22.7395 15.3087 22.7388 15.1904 22.7376C15.0763 22.7365 15.0261 22.7358 14.9643 22.7346C14.6509 22.73 14.3418 22.7022 14.0358 22.6514C13.7651 22.6029 13.4953 22.5127 13.2424 22.3848C13.005 22.2598 12.7799 22.0923 12.5839 21.8928L12.5355 21.8413C12.4875 21.7902 12.4667 21.7684 12.4427 21.7468C12.3193 21.6256 12.2631 21.5699 12.1965 21.5022L9.74015 19.0057L9.74002 19.0056C9.71767 18.9849 9.70413 18.9724 9.69477 18.964C9.65039 18.9206 9.61408 18.8833 9.57976 18.8463C9.50884 18.7764 9.46999 18.7374 9.38084 18.6468L7.45765 16.689L7.27454 16.5029C7.23652 16.4643 7.20593 16.4318 7.13583 16.3561C6.98327 16.203 6.85526 16.0598 6.73552 15.9096L6.69805 15.8667C6.66683 15.8341 6.6409 15.7967 6.6212 15.756C6.57354 15.5881 6.57372 15.4099 6.62174 15.2421C6.64031 15.203 6.66512 15.1672 6.69519 15.1362L6.73742 15.088C6.85519 14.9388 6.98188 14.7971 7.11678 14.6636C7.20593 14.5682 7.23652 14.5357 7.27454 14.4971C7.37125 14.3988 7.41445 14.3543 7.46838 14.2966L9.38084 12.3532L9.56669 12.1643C9.60368 12.1267 9.61955 12.1106 9.63966 12.0905L9.6806 12.0531C9.71036 12.026 9.72687 12.0109 9.74325 11.9943L11.8808 9.8186L12.1965 9.49781C12.2631 9.43006 12.3193 9.37439 12.4427 9.25325C12.4667 9.23164 12.4875 9.20984 12.5339 9.16039L12.5837 9.10744C12.7799 8.90772 13.005 8.74022 13.2513 8.61058C13.4953 8.48729 13.7651 8.39708 14.0433 8.34733C14.34 8.29907 14.6491 8.27225 14.959 8.26866C15.0948 8.2634 15.1925 8.26241 15.4166 8.26241C15.577 8.25978 15.6988 8.25926 15.971 8.25926H22.1939ZM16.3259 18.8325C16.2757 18.8825 16.2158 18.9232 16.1484 18.9515C15.9397 19.0391 15.6997 18.9902 15.5405 18.8276C15.3239 18.6065 15.3239 18.2491 15.5405 18.028C15.5721 17.9957 15.6069 17.9679 15.644 17.9448L18.0495 15.4973L15.5405 12.95L15.548 12.9423C15.4988 12.8913 15.4587 12.8305 15.4309 12.7619C15.3447 12.5499 15.3929 12.3059 15.5528 12.1441C15.7704 11.9239 16.1221 11.9239 16.3396 12.1441C16.3713 12.1761 16.3986 12.2114 16.4213 12.249L18.8349 14.6981L21.271 12.2195C21.2891 12.1931 21.3097 12.1678 21.3328 12.1441C21.4914 11.9821 21.7305 11.9334 21.9383 12.0206C22.1462 12.1078 22.2817 12.3138 22.2817 12.5423C22.2817 12.6946 22.2215 12.8369 22.1198 12.9407L22.1258 12.9469L19.6208 15.4956L22.0655 17.9763C22.0876 17.9927 22.1088 18.011 22.1288 18.0311C22.2882 18.1923 22.3362 18.4353 22.2503 18.6466C22.1645 18.8578 21.9619 18.9956 21.737 18.9956C21.5871 18.9956 21.4471 18.9344 21.3449 18.831L21.339 18.837L18.8351 16.2949L16.3335 18.8402L16.3259 18.8325Z" fill="black"/>
</g>
</svg>
