<svg width="44" height="44" viewBox="0 0 44 44" fill="none" xmlns="http://www.w3.org/2000/svg">
<g id="hangup">
<path id="phone-off" d="M39.028 4.972C38.8461 4.78974 38.6301 4.64513 38.3922 4.54647C38.1544 4.44781 37.8995 4.39703 37.642 4.39703C37.3845 4.39703 37.1296 4.44781 36.8917 4.54647C36.6539 4.64513 36.4379 4.78974 36.256 4.972L4.972 36.256C4.60899 36.6264 4.40393 37.1233 4.4 37.642C4.39941 38.0297 4.51392 38.4088 4.72903 38.7313C4.94414 39.0539 5.25016 39.3053 5.6083 39.4537C5.96644 39.6022 6.36059 39.641 6.7408 39.5652C7.12101 39.4894 7.47015 39.3024 7.744 39.028L39.028 7.744C39.2102 7.56213 39.3548 7.34609 39.4535 7.10826C39.5522 6.87043 39.603 6.61548 39.603 6.358C39.603 6.10052 39.5522 5.84556 39.4535 5.60773C39.3548 5.3699 39.2102 5.15387 39.028 4.972ZM10.34 27.786C6.48588 22.703 4.39985 16.499 4.4 10.12C4.40579 8.60474 5.01029 7.1532 6.08175 6.08175C7.1532 5.01029 8.60474 4.40579 10.12 4.4H10.846L13.2 14.608L11.99 15.246C10.076 16.236 8.69 16.962 9.416 18.722C10.2374 21.0795 11.4012 23.3033 12.87 25.322L16.016 22.198C15.3483 21.2044 14.7598 20.1599 14.256 19.074C16.962 17.6 16.984 17.6 17.27 17.27C17.5268 17.0072 17.7136 16.6843 17.8135 16.3308C17.9134 15.9772 17.9232 15.6043 17.842 15.246L14.828 2.2C14.7436 1.83633 14.5681 1.50012 14.3179 1.223C14.0677 0.945895 13.7512 0.737005 13.398 0.616C12.8842 0.432497 12.3537 0.299861 11.814 0.22C11.2579 0.0910694 10.6905 0.0173785 10.12 0C7.43601 0 4.86195 1.06621 2.96408 2.96408C1.06621 4.86195 0 7.43601 0 10.12C0.00191756 17.6668 2.535 24.9949 7.194 30.932L10.34 27.786ZM43.868 32.208C43.7755 31.6615 43.6357 31.1242 43.45 30.602C43.329 30.2488 43.1201 29.9322 42.843 29.6821C42.5659 29.4319 42.2297 29.2564 41.866 29.172L28.666 26.158C28.3077 26.0767 27.9348 26.0865 27.5812 26.1864C27.2277 26.2864 26.9048 26.4732 26.642 26.73C26.334 27.016 26.312 27.038 24.882 29.766C23.8057 29.2573 22.7688 28.669 21.78 28.006L18.634 31.152C20.6125 32.603 22.7912 33.7591 25.102 34.584C26.95 35.332 27.676 33.946 28.666 32.032L29.304 30.822L39.6 33.154V33.88C39.5942 35.3952 38.9897 36.8468 37.9182 37.9182C36.8468 38.9897 35.3952 39.5942 33.88 39.6C27.5236 39.5858 21.345 37.5005 16.28 33.66L13.068 36.806C19.005 41.465 26.3332 43.9981 33.88 44C35.209 44 36.5249 43.7382 37.7527 43.2296C38.9806 42.7211 40.0962 41.9756 41.0359 41.0359C41.9756 40.0962 42.7211 38.9806 43.2296 37.7527C43.7382 36.5249 44 35.209 44 33.88C44.0007 33.32 43.9565 32.7609 43.868 32.208Z" fill="#3F6825"/>
</g>
</svg>
