<svg width="133" height="133" viewBox="0 0 133 133" fill="none" xmlns="http://www.w3.org/2000/svg">
<g id="Phone Icon">
<g id="phone-call">
<path id="Vector" d="M88.1866 65.8963C88.0852 61.8928 86.3976 58.0936 83.4951 55.3344C82.7838 54.6583 82.3703 53.7273 82.3455 52.7463C82.3206 51.7653 82.6865 50.8147 83.3626 50.1034C84.0387 49.3922 84.9696 48.9787 85.9506 48.9539C86.9316 48.929 87.8823 49.2949 88.5935 49.971C92.9185 54.0824 95.4332 59.7435 95.5842 65.709C95.7353 71.6744 93.5104 77.4556 89.399 81.7806C88.7229 82.4918 87.7919 82.9053 86.8109 82.9302C85.8299 82.955 84.8793 82.5891 84.168 81.913C83.4568 81.2369 83.0433 80.306 83.0185 79.325C82.9936 78.344 83.3595 77.3934 84.0356 76.6821C86.7948 73.7796 88.288 69.8998 88.1866 65.8963Z" stroke="#FFF5B5" stroke-width="2"/>
<path id="Vector_2" d="M86.0894 110.922L86.0893 110.922L86.0846 110.932C85.6277 111.96 85.0822 112.946 84.4545 113.879C83.8086 114.82 83.0885 115.708 82.3011 116.534L82.3002 116.535C80.4346 118.497 78.2006 120.073 75.7259 121.173C73.2512 122.272 70.5842 122.873 67.8772 122.941C65.1702 123.01 62.4763 122.545 59.9491 121.572C57.4223 120.6 55.1118 119.139 53.1494 117.274C39.4506 104.218 31.4887 86.2619 31.0097 67.344C30.5307 48.4263 37.5735 30.0908 50.5937 16.3582C54.3616 12.3949 59.5495 10.0905 65.0163 9.95211C70.4782 9.81381 75.7715 11.8489 79.734 15.6101C80.5412 16.427 81.2661 17.3214 81.8983 18.2803L81.9206 18.3141L81.9455 18.346C82.6233 19.2125 83.2144 20.1434 83.7103 21.1253L83.7102 21.1254L83.7162 21.1369C84.0065 21.6936 84.1503 22.3151 84.1342 22.9427C84.118 23.5702 83.9425 24.1833 83.6241 24.7243C83.624 24.7244 83.6239 24.7246 83.6239 24.7247L69.0907 49.357C69.0904 49.3574 69.0902 49.3579 69.0899 49.3583C68.7738 49.8886 68.33 50.3314 67.799 50.6463C67.2675 50.9615 66.6656 51.1386 66.0481 51.1614L66.0183 51.1625L65.9885 51.1654C65.7636 51.1872 65.6659 51.1932 65.5306 51.1813C65.3792 51.168 65.1506 51.1282 64.7054 51.0134C63.9063 50.8073 62.5698 50.4034 60.021 49.6332C59.7041 49.5374 59.3685 49.436 59.0128 49.3286L58.0922 49.0506L57.7785 49.9596C54.0583 60.7366 54.3318 72.4912 58.5493 83.0835L58.9008 83.9664L59.8004 83.6603C62.9274 82.5966 64.4738 82.076 65.354 81.82C65.7901 81.6931 66.0234 81.6431 66.1824 81.6211C66.3304 81.6007 66.4356 81.6006 66.6605 81.6032L66.6732 81.6033L66.686 81.6032C67.3038 81.5947 67.9139 81.741 68.4606 82.0289C69.007 82.3166 69.4726 82.7364 69.8152 83.2501C69.8154 83.2505 69.8157 83.2509 69.8159 83.2512L85.8155 107.343C85.8158 107.344 85.8161 107.344 85.8163 107.344C86.1614 107.868 86.3675 108.471 86.4154 109.097C86.4633 109.723 86.3511 110.351 86.0894 110.922ZM98.9035 35.328L98.8782 34.3283L98.9035 35.328C99.8845 35.3032 100.835 35.669 101.546 36.3451C109.485 43.8918 114.101 54.2831 114.378 65.2331C114.655 76.183 110.572 86.7946 103.025 94.7334C102.349 95.4447 101.418 95.8582 100.437 95.883C99.4558 95.9079 98.5051 95.542 97.7939 94.8659C97.0826 94.1898 96.6691 93.2588 96.6443 92.2779C96.6195 91.2969 96.9853 90.3462 97.6614 89.635C103.856 83.1186 107.208 74.4084 106.981 65.4204C106.753 56.4324 102.964 47.903 96.4479 41.7085C95.7367 41.0324 95.3232 40.1015 95.2983 39.1205C95.2735 38.1395 95.6394 37.1888 96.3155 36.4776C96.9916 35.7663 97.9225 35.3528 98.9035 35.328Z" stroke="#FFF5B5" stroke-width="2"/>
</g>
</g>
</svg>
