<svg width="39" height="77" viewBox="0 0 39 77" fill="none" xmlns="http://www.w3.org/2000/svg">
<path id="Vector" d="M30.9608 54.1103L24.9168 54.0572C24.1916 54.0506 23.488 53.8071 22.9134 53.364C22.3388 52.9208 21.9248 52.3023 21.7347 51.6029L15.2102 27.6336C15.02 26.9343 15.0639 26.1926 15.3351 25.5214C15.6063 24.8503 16.0899 24.2866 16.7123 23.9162L21.9028 20.8336C22.837 20.2788 23.5632 19.4335 23.9702 18.4267C24.3773 17.4199 24.4429 16.307 24.1571 15.2581L21.2272 4.49438C21.0556 3.86331 20.7612 3.27194 20.3609 2.75406C19.9607 2.23618 19.4623 1.80194 18.8944 1.47613C18.3264 1.15033 17.7 0.939352 17.0509 0.855257C16.4018 0.771162 15.7427 0.815595 15.1113 0.986019L10.2222 2.30257C7.36243 3.07369 4.84484 4.77813 3.06972 7.14488C1.2946 9.51164 0.363858 12.4048 0.425489 15.3644L0.49756 18.8546C0.865768 36.6779 5.81285 54.1172 14.8643 69.4995L15.0711 69.853C18.1633 75.1075 24.2776 77.6006 30.0603 76.0431L35.1673 74.666C35.7987 74.4959 36.3902 74.2031 36.9079 73.8044C37.4256 73.4057 37.8593 72.9088 38.1843 72.3422C38.5094 71.7756 38.7193 71.1504 38.8022 70.5022C38.8851 69.8541 38.8392 69.1957 38.6673 68.5647L35.7355 57.7942C35.4508 56.7442 34.8299 55.8157 33.9676 55.1504C33.1054 54.4851 32.0493 54.1198 30.9608 54.1103Z" fill="#007749"/>
</svg>
