<svg width="22" height="30" viewBox="0 0 22 30" fill="none" xmlns="http://www.w3.org/2000/svg">
<g id="Signifier">
<path id="Vector" d="M7.17642 24.7245C7.37329 24.8244 7.60125 24.8633 7.83129 24.8223C7.83958 24.8212 7.84683 24.8149 7.84994 24.8065C8.15354 23.914 8.16079 22.7871 7.64685 21.7274C7.19921 20.8013 6.54745 20.2567 5.80037 20.0023C5.78793 19.9981 5.77861 20.016 5.79 20.0234C6.27183 20.3535 6.67283 20.8107 6.9526 21.39C7.49349 22.5053 7.47484 23.7006 7.14015 24.6351C7.12772 24.6698 7.14326 24.7077 7.17538 24.7245H7.17642Z" fill="#FFF0BF"/>
<path id="Vector_2" d="M12.7158 0.0089568L12.7324 0.0730822C12.7324 0.0730822 12.7324 0.0825433 12.7282 0.085697C12.006 0.585034 11.3066 1.918 11.7097 3.44334C12.1625 5.15896 14.069 12.3778 14.7332 14.8903L15.4565 17.6308C15.9114 19.3527 16.5435 20.3083 17.419 20.4387C17.4232 20.4387 17.4263 20.4418 17.4284 20.446L17.4532 20.5133C17.4532 20.5133 17.4532 20.5228 17.4501 20.5259C16.9952 20.9769 16.6243 22.0912 16.1538 23.1151C15.6762 24.1548 14.6742 27.3222 10.86 28.8013C6.70281 30.4128 2.47725 29.3963 0.693979 26.4107C-0.470692 24.466 -0.191958 21.8063 1.70115 20.7288C3.34557 19.7953 5.11641 20.4071 5.78372 21.7885C6.43133 23.1246 5.98474 24.5501 5.4511 25.0179C5.3423 25.1156 5.44799 25.3038 5.69875 25.4751C6.80747 26.2489 8.06643 26.2068 9.28395 25.554C10.8413 24.7204 11.3957 23.2875 10.5885 20.2284C9.92431 17.7149 6.98051 6.56867 6.52666 4.8499C6.12358 3.32455 4.86151 2.52456 3.99008 2.45834C3.9849 2.45834 3.98076 2.45413 3.97972 2.44993L3.96314 2.3858C3.96107 2.37949 3.96521 2.37319 3.97143 2.37108L12.7013 0.000546915C12.7075 -0.00155556 12.7137 0.00264939 12.7158 0.0089568Z" fill="#FFF0BF"/>
<path id="Vector_3" d="M18.1217 21.6169C17.6264 22.8846 16.8979 24.7117 16.0814 26.0226C16.0742 26.0341 16.0887 26.0468 16.098 26.0384C16.9943 25.3151 17.8999 23.9001 18.4004 22.6366C18.7195 21.8324 19.3962 20.1735 19.6666 19.8949C19.679 19.8823 19.6728 19.8613 19.6562 19.856C19.135 19.6994 18.0336 19.5648 17.3849 17.1071L13.6816 3.07937C13.3262 1.73168 13.6381 0.914871 14.1075 0.376638C14.1158 0.367177 14.1075 0.353511 14.095 0.357716C13.2236 0.634191 12.6516 1.94508 13.0485 3.4494C13.5013 5.16502 16.7042 17.2921 16.7042 17.2921C16.9166 18.0952 17.1922 18.7249 17.5144 19.1822C17.8294 19.629 18.2667 19.9717 18.6916 20.0621C18.733 20.0705 18.7993 20.0778 18.847 20.081C18.8677 20.0831 18.876 20.1073 18.8605 20.122C18.8377 20.1441 18.8149 20.1704 18.7921 20.2008C18.5879 20.4636 18.3589 21.0103 18.1206 21.6179" fill="#FFF0BF"/>
<path id="Vector_4" d="M19.2998 17.3584V16.1359H18.847V15.7974H20.1277V16.1359H19.6749V17.3584H19.2998Z" fill="#FFF0BF"/>
<path id="Vector_5" d="M21.625 17.3584V16.1779L21.2633 17.3584H21.052L20.6852 16.1779V17.3584H20.3515V15.7974H20.9224L21.1836 16.7729L21.4592 15.7974H22.0001V17.3584H21.625Z" fill="#FFF0BF"/>
</g>
</svg>
