<?xml version="1.0" encoding="utf-8"?>
<!-- Generator: Adobe Illustrator 16.0.0, SVG Export Plug-In . SVG Version: 6.00 Build 0)  -->
<!DOCTYPE svg PUBLIC "-//W3C//DTD SVG 1.1//EN" "http://www.w3.org/Graphics/SVG/1.1/DTD/svg11.dtd">
<svg version="1.1" id="Layer_1" xmlns="http://www.w3.org/2000/svg" xmlns:xlink="http://www.w3.org/1999/xlink" x="0px" y="0px"
	 width="565.667px" height="80.667px" viewBox="0 0 565.667 80.667" enable-background="new 0 0 565.667 80.667"
	 xml:space="preserve">
<path fill="#FFFFFF" d="M214.579,67.086c-4.268,0-8.358-1.429-11.829-4.132l-4.166-3.239l29.689-33.549L231.747,32
	c2.194,3.695,3.354,7.992,3.354,12.43C235.101,56.924,225.896,67.086,214.579,67.086z M208.074,58.768
	c1.999,1.207,4.219,1.838,6.504,1.838c7.743,0,14.042-7.258,14.042-16.176c0-2.528-0.506-4.987-1.472-7.215L208.074,58.768z
	 M205.88,46.236l-9.836-31.944h36.372L205.88,46.236z M204.82,20.771l3.728,12.111l10.06-12.111H204.82z"/>
<g>
	<path fill="#FFFFFF" d="M17.305,55.753l4.828-5.878c4.37,3.874,8.741,6.076,14.417,6.076c4.958,0,8.089-2.336,8.089-5.875V49.94
		c0-3.337-1.827-5.139-10.307-7.144c-9.721-2.406-15.2-5.344-15.2-13.958v-0.133c0-8.015,6.523-13.558,15.591-13.558
		c6.654,0,11.938,2.068,16.569,5.876l-4.305,6.212c-4.11-3.139-8.22-4.808-12.396-4.808c-4.696,0-7.437,2.471-7.437,5.543v0.134
		c0,3.604,2.088,5.207,10.83,7.344c9.655,2.404,14.677,5.943,14.677,13.692v0.133c0,8.751-6.719,13.958-16.309,13.958
		C29.374,63.231,22.785,60.762,17.305,55.753z"/>
	<path fill="#FFFFFF" d="M77.07,42.729V15.814h8.024v26.579c0,8.682,4.371,13.36,11.547,13.36c7.11,0,11.481-4.408,11.481-13.024
		V15.814h8.024v26.514c0,13.959-7.697,20.973-19.636,20.973C84.638,63.3,77.07,56.287,77.07,42.729z"/>
</g>
<g>
	<path fill="#FFFFFF" d="M142.838,15.814h18.004c10.634,0,17.353,6.212,17.353,15.629v0.132c0,10.487-8.219,15.962-18.265,15.962
		h-9.067v15.028h-8.024V15.814z M160.19,40.123c6.067,0,9.851-3.471,9.851-8.347v-0.133c0-5.476-3.849-8.349-9.851-8.349h-9.328
		v16.829H160.19z"/>
</g>
<g>
	<path fill="#FFFFFF" d="M259.498,15.814h20.354c5.741,0,10.244,1.737,13.177,4.675c2.414,2.539,3.785,6.011,3.785,10.085v0.133
		c0,7.682-4.5,12.289-10.895,14.159l12.332,17.699h-9.459l-11.223-16.298h-10.045v16.298h-8.025V15.814z M279.265,38.988
		c5.74,0,9.393-3.071,9.393-7.814v-0.133c0-5.008-3.521-7.747-9.458-7.747h-11.678v15.694H279.265z"/>
	<path fill="#FFFFFF" d="M322.33,15.814h7.437l24.465,32.324V15.814h7.892v46.751h-6.719l-25.182-33.259v33.259h-7.893V15.814z"/>
	<path fill="#FFFFFF" d="M387.512,39.323v-0.134c0-13.156,9.914-24.175,23.94-24.175c14.024,0,23.811,10.884,23.811,24.042v0.133
		c0,13.158-9.916,24.176-23.94,24.176C397.296,63.365,387.512,52.48,387.512,39.323z M426.848,39.323v-0.134
		c0-9.082-6.46-16.628-15.525-16.628c-9.069,0-15.396,7.414-15.396,16.496v0.133c0,9.083,6.456,16.629,15.525,16.629
		C420.521,55.818,426.848,48.404,426.848,39.323z"/>
	<path fill="#FFFFFF" d="M453.932,15.814h8.871l13.764,35.931l13.7-35.931h8.677L479.96,62.899h-7.047L453.932,15.814z"/>
	<path fill="#FFFFFF" d="M532.026,15.48h7.437l20.093,47.084h-8.48l-4.632-11.288h-21.593l-4.697,11.288h-8.219L532.026,15.48z
		 M543.507,43.998l-7.892-18.7l-7.828,18.7H543.507z"/>
</g>
</svg>
